<?xml version="1.0" encoding="UTF-8" standalone="no"?>
<svg
   xmlns:dc="http://purl.org/dc/elements/1.1/"
   xmlns:cc="http://creativecommons.org/ns#"
   xmlns:rdf="http://www.w3.org/1999/02/22-rdf-syntax-ns#"
   xmlns:svg="http://www.w3.org/2000/svg"
   xmlns="http://www.w3.org/2000/svg"
   xmlns:xlink="http://www.w3.org/1999/xlink"
   xmlns:sodipodi="http://sodipodi.sourceforge.net/DTD/sodipodi-0.dtd"
   xmlns:inkscape="http://www.inkscape.org/namespaces/inkscape"
   width="210mm"
   height="297mm"
   viewBox="0 0 210 297"
   version="1.1"
   id="svg8"
   inkscape:version="1.0 (4035a4fb49, 2020-05-01)"
   sodipodi:docname="Apoa final1.svg">
  <defs
     id="defs2">
    <linearGradient
       inkscape:collect="always"
       id="linearGradient1054">
      <stop
         style="stop-color:#007d97;stop-opacity:1;"
         offset="0"
         id="stop1050" />
      <stop
         style="stop-color:#000000;stop-opacity:1"
         offset="1"
         id="stop1052" />
    </linearGradient>
    <linearGradient
       inkscape:collect="always"
       xlink:href="#linearGradient1054"
       id="linearGradient1056"
       x1="94.273003"
       y1="128.00002"
       x2="129.19823"
       y2="128.30579"
       gradientUnits="userSpaceOnUse"
       gradientTransform="matrix(1.1196508,0,0,1.1196508,-23.326528,-9.8541121)" />
  </defs>
  <sodipodi:namedview
     id="base"
     pagecolor="#ffffff"
     bordercolor="#666666"
     borderopacity="1.0"
     inkscape:pageopacity="0.0"
     inkscape:pageshadow="2"
     inkscape:zoom="1.4"
     inkscape:cx="324.66692"
     inkscape:cy="408.90243"
     inkscape:document-units="mm"
     inkscape:current-layer="layer1"
     inkscape:document-rotation="0"
     showgrid="false"
     inkscape:window-width="1368"
     inkscape:window-height="850"
     inkscape:window-x="-6"
     inkscape:window-y="-6"
     inkscape:window-maximized="1" />
  <metadata
     id="metadata5">
    <rdf:RDF>
      <cc:Work
         rdf:about="">
        <dc:format>image/svg+xml</dc:format>
        <dc:type
           rdf:resource="http://purl.org/dc/dcmitype/StillImage" />
        <dc:title />
      </cc:Work>
    </rdf:RDF>
  </metadata>
  <g
     inkscape:label="Layer 1"
     inkscape:groupmode="layer"
     id="layer1">
    <path
       id="path884"
       style="fill:url(#linearGradient1056);fill-opacity:1;stroke:#000000;stroke-width:0.296243px;stroke-linecap:butt;stroke-linejoin:miter;stroke-opacity:1"
       d="M 54.489209,172.649 70.15124,133.4612 h 12.075071 l 15.929283,39.1878 c 1.607478,4.1668 6.596156,2.62754 5.598256,-1.11966 L 88.663148,133.4612 h 9.486583 l 16.449839,39.1878 c 1.7067,3.89272 7.00719,2.59493 5.94907,-1.11966 C 110.1277,142.53326 85.839433,87.058905 85.839433,87.058905 c -1.828693,-4.319943 -7.05003,-2.437909 -5.598253,1.556526 0,0 11.896994,27.560909 16.281313,38.127849 H 66.597641 c -5.777652,14.14307 -12.019173,30.61864 -17.706688,44.78606 -1.240194,3.43624 3.958658,5.28799 5.598256,1.11966 z"
       sodipodi:nodetypes="ccccccccccccccc" />
    <path
       style="fill:#000000;stroke:#000000;stroke-width:0.2684px;stroke-linecap:butt;stroke-linejoin:miter;stroke-opacity:1"
       d="M 35.002909,205.88714 46.669,179.00479 58.33476,205.88714 h -2.536071 l -9.129855,-20.50709 -9.129854,20.50709 z"
       id="path888"
       sodipodi:nodetypes="ccccccc" />
    <path
       id="path970"
       style="fill:#007d97;fill-opacity:1;stroke-width:6.77932;stroke-linejoin:round"
       d="m 96.091809,178.66801 a 13.441175,13.677198 0 0 0 -13.410605,13.67703 13.441175,13.677198 0 0 0 13.441009,13.67702 13.441175,13.677198 0 0 0 13.441007,-13.67702 13.441175,13.677198 0 0 0 -13.441007,-13.67703 13.441175,13.677198 0 0 0 -0.0304,0 z m 0.0304,2.58019 A 10.905104,11.096595 0 0 1 107.02757,192.34504 10.905104,11.096595 0 0 1 96.122213,203.4419 10.905104,11.096595 0 0 1 85.216857,192.34504 10.905104,11.096595 0 0 1 96.122213,181.2482 Z" />
    <path
       id="path990"
       style="fill:#007d97;fill-opacity:1;stroke-width:4.85183;stroke-linejoin:round"
       d="m 69.719332,179.00479 h -7.455987 v 19.89724 7.28718 h 2.536366 l -1.88e-4,-7.91028 h 4.919809 c 5.304298,0.086 8.625135,-4.46215 8.625025,-9.63707 0.04295,-4.30298 -2.66026,-9.589 -8.625025,-9.63707 z m -4.919621,2.53608 h 5.055394 c 3.481572,0.005 5.952822,3.65374 5.953181,7.10099 1.64e-4,3.44766 -2.877901,7.09626 -5.953181,7.101 h -5.055394 z"
       sodipodi:nodetypes="ccccccccccccccc" />
    <path
       sodipodi:nodetypes="ccccccc"
       id="path888-9"
       d="m 111.262,205.88746 11.66592,-26.88235 11.66593,26.88235 h -2.53607 l -9.12986,-20.5071 -9.12985,20.5071 z"
       style="fill:#000000;stroke:#000000;stroke-width:0.2684px;stroke-linecap:butt;stroke-linejoin:miter;stroke-opacity:1" />
  </g>
</svg>
